# xmcd
#
# Track frame offsets: 
#        150
#        17352
#        34693
#
# Disc length: 473 seconds
#
# Revision: 1
# Processed by: cddbd v1.5.2PL0 Copyright (c) Steve Scherf et al.
# Submitted via: ExactAudioCopy v0.99pb5
#
DISCID=1401d703
DTITLE=Katy Perry - Firework [Single]
DYEAR=2010
DGENRE=Pop
TTITLE0=Firework
TTITLE1=Firework (Instrumental)
TTITLE2=Firework (Call Out Hook)
EXTD=
EXTT0=
EXTT1=
EXTT2=
PLAYORDER=
